<svg preserveAspectRatio="none" overflow="visible" style="display: block;" width="18.6367" height="14.8691" viewBox="0 0 18.6367 14.8691" fill="none" xmlns="http://www.w3.org/2000/svg">
<g id="Group 2131329285">
<path id="Subtract" d="M7.1875 0C9.32498 0.000270871 11.2433 0.967565 12.5596 2.5L13.1924 0.495117H18.4434L15.7129 7.65332H15.7334L18.6367 14.335H13.082L12.8955 11.9482C11.5823 13.7231 9.51489 14.8688 7.1875 14.8691C3.21835 14.8691 0 11.5406 0 7.43457C0.000206511 3.32874 3.21848 0 7.1875 0ZM8.99023 2.29004C7.31144 1.70118 5.14174 3.52727 4.14453 6.36816C3.14753 9.20903 3.70026 11.9897 5.37891 12.5791C7.05772 13.1684 9.22729 11.343 10.2246 8.50195C11.2219 5.66083 10.6691 2.87935 8.99023 2.29004Z" fill="#10B981"/>
</g>
</svg>
